<svg xmlns="http://www.w3.org/2000/svg" xmlns:xlink="http://www.w3.org/1999/xlink" width="1049" zoomAndPan="magnify" viewBox="0 0 786.75 525.000007" height="700" preserveAspectRatio="xMidYMid meet" version="1.0"><defs><g/><clipPath id="125811aeec"><path d="M 0.078125 44 L 95 44 L 95 206 L 0.078125 206 Z M 0.078125 44 " clip-rule="nonzero"/></clipPath><clipPath id="6899515d4d"><rect x="0" width="392" y="0" height="290"/></clipPath></defs><g transform="matrix(1, 0, 0, 1, 202, 116)"><g clip-path="url(#6899515d4d)"><g clip-path="url(#125811aeec)"><g fill="#7a1111" fill-opacity="1"><g transform="translate(3.192611, 204.368516)"><g><path d="M 37.515625 0.796875 C 27.003906 1.066406 18.625 -2.019531 12.375 -8.46875 C 6.125 -14.925781 2.132812 -23.972656 0.40625 -35.609375 C -1.320312 -47.253906 -0.726562 -60.660156 2.1875 -75.828125 C 4.457031 -87.265625 7.785156 -98.003906 12.171875 -108.046875 C 16.554688 -118.085938 21.804688 -126.960938 27.921875 -134.671875 C 34.046875 -142.390625 40.734375 -148.441406 47.984375 -152.828125 C 55.234375 -157.222656 62.71875 -159.421875 70.4375 -159.421875 C 75.625 -159.421875 79.613281 -158.6875 82.40625 -157.21875 C 85.195312 -155.757812 87.191406 -153.898438 88.390625 -151.640625 C 89.585938 -149.378906 90.316406 -146.984375 90.578125 -144.453125 C 90.847656 -141.929688 91.050781 -139.609375 91.1875 -137.484375 C 91.1875 -135.347656 90.488281 -134.476562 89.09375 -134.875 C 87.695312 -135.28125 87.128906 -136.347656 87.390625 -138.078125 C 87.523438 -139.003906 87.492188 -140.398438 87.296875 -142.265625 C 87.097656 -144.128906 86.429688 -146.09375 85.296875 -148.15625 C 84.171875 -150.21875 82.410156 -151.945312 80.015625 -153.34375 C 77.617188 -154.738281 74.289062 -155.4375 70.03125 -155.4375 C 65.375 -155.4375 60.984375 -153.804688 56.859375 -150.546875 C 52.742188 -147.285156 48.957031 -142.992188 45.5 -137.671875 C 42.039062 -132.359375 38.878906 -126.570312 36.015625 -120.3125 C 33.148438 -114.0625 30.65625 -107.910156 28.53125 -101.859375 C 26.40625 -95.804688 24.707031 -90.382812 23.4375 -85.59375 C 22.175781 -80.8125 21.28125 -77.222656 20.75 -74.828125 C 20.351562 -72.566406 19.753906 -69.273438 18.953125 -64.953125 C 18.160156 -60.628906 17.460938 -55.875 16.859375 -50.6875 C 16.265625 -45.5 16.03125 -40.273438 16.15625 -35.015625 C 16.289062 -29.765625 16.988281 -24.910156 18.25 -20.453125 C 19.519531 -15.992188 21.582031 -12.429688 24.4375 -9.765625 C 27.300781 -7.109375 31.191406 -5.78125 36.109375 -5.78125 C 43.554688 -5.78125 49.640625 -6.84375 54.359375 -8.96875 C 59.085938 -11.101562 62.816406 -13.597656 65.546875 -16.453125 C 68.273438 -19.316406 70.367188 -21.976562 71.828125 -24.4375 C 73.296875 -26.90625 74.425781 -28.601562 75.21875 -29.53125 C 76.945312 -31.394531 78.273438 -31.726562 79.203125 -30.53125 C 80.140625 -29.332031 80.007812 -28.132812 78.8125 -26.9375 C 78.28125 -26.40625 77.28125 -24.707031 75.8125 -21.84375 C 74.351562 -18.988281 72.125 -15.863281 69.125 -12.46875 C 66.132812 -9.070312 62.078125 -6.078125 56.953125 -3.484375 C 51.835938 -0.890625 45.359375 0.535156 37.515625 0.796875 Z M 37.515625 0.796875 "/></g></g></g></g><g fill="#7a1111" fill-opacity="1"><g transform="translate(80.00625, 204.368516)"><g><path d="M 18.15625 1.390625 C 14.96875 1.921875 11.804688 1.359375 8.671875 -0.296875 C 5.546875 -1.960938 3.253906 -4.191406 1.796875 -6.984375 C -0.0664062 -11.898438 -0.929688 -17.679688 -0.796875 -24.328125 C -0.660156 -30.984375 0.632812 -37.9375 3.09375 -45.1875 C 5.550781 -52.4375 9.109375 -59.253906 13.765625 -65.640625 C 16.023438 -68.835938 18.816406 -71.695312 22.140625 -74.21875 C 25.472656 -76.75 29.035156 -78.710938 32.828125 -80.109375 C 36.617188 -81.503906 40.304688 -81.9375 43.890625 -81.40625 C 45.890625 -81.269531 47.453125 -80.40625 48.578125 -78.8125 C 49.710938 -77.21875 50.28125 -75.359375 50.28125 -73.234375 C 50.28125 -71.367188 50.144531 -69.769531 49.875 -68.4375 C 49.613281 -67.101562 48.953125 -65.570312 47.890625 -63.84375 C 47.359375 -63.3125 46.890625 -62.976562 46.484375 -62.84375 C 46.085938 -62.71875 45.691406 -62.65625 45.296875 -62.65625 C 44.097656 -62.65625 43.5 -63.285156 43.5 -64.546875 C 43.5 -65.804688 43.695312 -67.300781 44.09375 -69.03125 C 44.488281 -70.757812 44.753906 -72.320312 44.890625 -73.71875 C 45.023438 -75.125 44.5625 -75.890625 43.5 -76.015625 C 36.976562 -78.148438 30.722656 -74.894531 24.734375 -66.25 C 21.273438 -61.1875 18.679688 -55.363281 16.953125 -48.78125 C 15.222656 -42.195312 14.257812 -35.710938 14.0625 -29.328125 C 13.863281 -22.941406 14.234375 -17.359375 15.171875 -12.578125 C 15.566406 -10.441406 16.726562 -9.207031 18.65625 -8.875 C 20.582031 -8.539062 22.210938 -8.84375 23.546875 -9.78125 C 27.398438 -12.832031 30.691406 -16.953125 33.421875 -22.140625 C 36.148438 -27.335938 39.242188 -33.191406 42.703125 -39.703125 C 44.023438 -41.960938 45.285156 -44.222656 46.484375 -46.484375 C 47.679688 -48.753906 48.816406 -50.953125 49.890625 -53.078125 C 50.285156 -53.742188 50.648438 -54.472656 50.984375 -55.265625 C 51.316406 -56.066406 51.679688 -56.867188 52.078125 -57.671875 C 52.609375 -60.722656 52.972656 -63.144531 53.171875 -64.9375 C 53.367188 -66.738281 54.203125 -68.304688 55.671875 -69.640625 C 56.460938 -70.429688 57.390625 -70.859375 58.453125 -70.921875 C 59.523438 -70.992188 60.394531 -70.566406 61.0625 -69.640625 C 61.457031 -68.835938 61.820312 -68.070312 62.15625 -67.34375 C 62.488281 -66.613281 62.65625 -65.78125 62.65625 -64.84375 C 62.914062 -60.851562 63.078125 -56.863281 63.140625 -52.875 C 63.210938 -48.882812 63.25 -44.894531 63.25 -40.90625 C 63.113281 -36.507812 63.046875 -32.117188 63.046875 -27.734375 C 63.046875 -23.347656 63.046875 -18.890625 63.046875 -14.359375 C 63.046875 -11.441406 64.242188 -9.648438 66.640625 -8.984375 C 69.304688 -8.179688 72.164062 -9.175781 75.21875 -11.96875 C 78.28125 -14.757812 81.207031 -18.414062 84 -22.9375 C 86.789062 -27.46875 89.285156 -32.160156 91.484375 -37.015625 C 93.679688 -41.867188 95.242188 -46.09375 96.171875 -49.6875 C 96.566406 -51.414062 97.363281 -52.878906 98.5625 -54.078125 C 98.832031 -54.203125 99.234375 -54.203125 99.765625 -54.078125 C 100.691406 -54.078125 101.15625 -53.546875 101.15625 -52.484375 C 101.03125 -51.410156 100.765625 -50.375 100.359375 -49.375 C 99.960938 -48.382812 99.628906 -47.421875 99.359375 -46.484375 C 99.234375 -46.085938 98.703125 -44.625 97.765625 -42.09375 C 96.835938 -39.570312 95.640625 -36.546875 94.171875 -33.015625 C 92.710938 -29.492188 91.117188 -25.9375 89.390625 -22.34375 C 87.660156 -18.75 86 -15.691406 84.40625 -13.171875 C 80.144531 -6.648438 75.421875 -2.488281 70.234375 -0.6875 C 65.046875 1.101562 60.191406 1.066406 55.671875 -0.796875 C 53.140625 -1.859375 51.242188 -3.921875 49.984375 -6.984375 C 48.722656 -10.046875 47.957031 -12.835938 47.6875 -15.359375 C 47.550781 -16.691406 47.445312 -17.988281 47.375 -19.25 C 47.3125 -20.519531 47.28125 -21.753906 47.28125 -22.953125 C 47.28125 -24.679688 47.3125 -26.375 47.375 -28.03125 C 47.445312 -29.695312 47.414062 -31.394531 47.28125 -33.125 C 47.28125 -34.1875 46.882812 -34.71875 46.09375 -34.71875 C 45.289062 -34.71875 44.65625 -34.414062 44.1875 -33.8125 C 43.726562 -33.21875 43.429688 -32.789062 43.296875 -32.53125 C 41.304688 -28.132812 39.175781 -23.441406 36.90625 -18.453125 C 34.644531 -13.460938 32.019531 -9.101562 29.03125 -5.375 C 26.039062 -1.65625 22.414062 0.597656 18.15625 1.390625 Z M 18.15625 1.390625 "/></g></g></g><g fill="#7a1111" fill-opacity="1"><g transform="translate(168.591143, 204.368516)"><g><path d="M 7.78125 1.203125 C 6.1875 1.328125 4.59375 0.855469 3 -0.203125 C 1.664062 -1.128906 0.863281 -2.523438 0.59375 -4.390625 C 0.0625 -9.710938 -0.101562 -14.269531 0.09375 -18.0625 C 0.300781 -21.851562 0.703125 -25.507812 1.296875 -29.03125 C 1.890625 -32.550781 2.390625 -36.441406 2.796875 -40.703125 C 2.796875 -41.097656 2.992188 -42.789062 3.390625 -45.78125 C 3.785156 -48.78125 4.28125 -52.207031 4.875 -56.0625 C 5.476562 -59.925781 6.046875 -63.453125 6.578125 -66.640625 C 7.109375 -69.835938 7.507812 -71.898438 7.78125 -72.828125 C 8.3125 -74.554688 9.207031 -76.082031 10.46875 -77.40625 C 11.738281 -78.738281 13.101562 -79.804688 14.5625 -80.609375 C 14.96875 -80.878906 15.632812 -80.878906 16.5625 -80.609375 C 17.488281 -80.347656 18.15625 -80.082031 18.5625 -79.8125 C 19.488281 -79.144531 20.050781 -77.414062 20.25 -74.625 C 20.445312 -71.832031 20.515625 -68.9375 20.453125 -65.9375 C 20.390625 -62.945312 20.359375 -60.785156 20.359375 -59.453125 C 20.359375 -58.128906 20.421875 -56.867188 20.546875 -55.671875 C 20.679688 -54.472656 20.816406 -53.207031 20.953125 -51.875 C 21.484375 -50.550781 22.113281 -49.921875 22.84375 -49.984375 C 23.570312 -50.046875 25.003906 -51.34375 27.140625 -53.875 C 30.191406 -58.257812 32.945312 -61.914062 35.40625 -64.84375 C 37.875 -67.769531 40.238281 -70.164062 42.5 -72.03125 C 45.03125 -74.15625 47.523438 -75.582031 49.984375 -76.3125 C 52.441406 -77.050781 54.335938 -77.085938 55.671875 -76.421875 C 59.390625 -75.085938 61.648438 -72.957031 62.453125 -70.03125 C 63.253906 -67.101562 63.320312 -63.644531 62.65625 -59.65625 C 62.519531 -58.726562 62.21875 -57.265625 61.75 -55.265625 C 61.289062 -53.273438 61.328125 -51.75 61.859375 -50.6875 C 62.390625 -49.75 63.21875 -49.742188 64.34375 -50.671875 C 65.476562 -51.609375 66.3125 -52.34375 66.84375 -52.875 C 67.90625 -53.9375 68.832031 -55.132812 69.625 -56.46875 C 70.425781 -57.800781 71.296875 -59.066406 72.234375 -60.265625 C 73.828125 -62.523438 76.050781 -65.050781 78.90625 -67.84375 C 81.769531 -70.632812 84.398438 -72.628906 86.796875 -73.828125 C 89.453125 -75.160156 92.273438 -75.160156 95.265625 -73.828125 C 98.265625 -72.492188 100.296875 -69.832031 101.359375 -65.84375 C 101.753906 -64.25 101.851562 -61.890625 101.65625 -58.765625 C 101.457031 -55.640625 101.191406 -52.3125 100.859375 -48.78125 C 100.523438 -45.257812 100.191406 -42 99.859375 -39 C 99.523438 -36.007812 99.359375 -33.851562 99.359375 -32.53125 C 99.234375 -29.601562 99.132812 -26.675781 99.0625 -23.75 C 99 -20.820312 98.898438 -17.894531 98.765625 -14.96875 C 98.765625 -10.976562 99.59375 -8.484375 101.25 -7.484375 C 102.914062 -6.484375 105.015625 -7.445312 107.546875 -10.375 C 108.742188 -11.84375 110.570312 -14.835938 113.03125 -19.359375 C 115.488281 -23.878906 117.785156 -28.398438 119.921875 -32.921875 C 120.453125 -34.117188 121.25 -35.945312 122.3125 -38.40625 C 123.375 -40.863281 124.4375 -43.359375 125.5 -45.890625 C 126.5625 -48.421875 127.363281 -50.21875 127.90625 -51.28125 C 128.695312 -52.476562 129.5625 -52.476562 130.5 -51.28125 C 130.757812 -51.144531 130.890625 -50.8125 130.890625 -50.28125 C 130.890625 -49.882812 130.957031 -49.550781 131.09375 -49.28125 C 131.226562 -49.019531 131.160156 -48.6875 130.890625 -48.28125 C 130.628906 -47.488281 130.03125 -46.0625 129.09375 -44 C 128.164062 -41.9375 127.203125 -39.671875 126.203125 -37.203125 C 125.203125 -34.742188 124.234375 -32.484375 123.296875 -30.421875 C 122.367188 -28.359375 121.773438 -27 121.515625 -26.34375 C 118.585938 -19.6875 115.523438 -13.796875 112.328125 -8.671875 C 109.140625 -3.554688 105.617188 -0.800781 101.765625 -0.40625 C 101.097656 -0.269531 100.394531 -0.164062 99.65625 -0.09375 C 98.925781 -0.03125 98.03125 0 96.96875 0 C 93.644531 0 90.550781 -1.09375 87.6875 -3.28125 C 84.832031 -5.476562 83.070312 -7.710938 82.40625 -9.984375 C 81.738281 -12.773438 81.601562 -16.394531 82 -20.84375 C 82.40625 -25.300781 82.941406 -29.726562 83.609375 -34.125 C 84.140625 -37.175781 84.734375 -40.863281 85.390625 -45.1875 C 86.054688 -49.507812 86.789062 -52.804688 87.59375 -55.078125 C 88.394531 -57.597656 88.992188 -60.085938 89.390625 -62.546875 C 89.785156 -65.015625 89.519531 -66.515625 88.59375 -67.046875 C 87.394531 -67.710938 85.796875 -67.242188 83.796875 -65.640625 C 81.804688 -64.046875 79.710938 -61.914062 77.515625 -59.25 C 75.316406 -56.59375 73.253906 -53.929688 71.328125 -51.265625 C 69.398438 -48.609375 67.835938 -46.550781 66.640625 -45.09375 C 65.972656 -44.164062 65.273438 -42.898438 64.546875 -41.296875 C 63.816406 -39.703125 63.1875 -38.375 62.65625 -37.3125 C 61.0625 -33.457031 59.929688 -28.9375 59.265625 -23.75 C 58.597656 -18.5625 57.929688 -13.640625 57.265625 -8.984375 C 57.128906 -7.910156 56.796875 -6.804688 56.265625 -5.671875 C 55.734375 -4.546875 55.132812 -3.585938 54.46875 -2.796875 C 53.9375 -1.597656 52.539062 -0.929688 50.28125 -0.796875 C 48.019531 -0.660156 46.425781 -0.660156 45.5 -0.796875 C 44.03125 -1.191406 42.960938 -1.988281 42.296875 -3.1875 C 41.628906 -4.382812 41.296875 -5.453125 41.296875 -6.390625 C 41.035156 -11.171875 41.269531 -16.585938 42 -22.640625 C 42.726562 -28.691406 43.65625 -34.8125 44.78125 -41 C 45.914062 -47.1875 46.882812 -52.875 47.6875 -58.0625 C 47.957031 -59.394531 48.253906 -60.660156 48.578125 -61.859375 C 48.910156 -63.054688 49.144531 -64.253906 49.28125 -65.453125 C 49.6875 -66.242188 49.554688 -66.875 48.890625 -67.34375 C 48.222656 -67.8125 47.023438 -67.644531 45.296875 -66.84375 C 43.566406 -66.039062 41.601562 -64.410156 39.40625 -61.953125 C 37.207031 -59.492188 35.046875 -56.800781 32.921875 -53.875 C 30.796875 -50.945312 28.96875 -48.316406 27.4375 -45.984375 C 25.90625 -43.660156 24.941406 -42.164062 24.546875 -41.5 C 23.609375 -40.039062 22.738281 -38.613281 21.9375 -37.21875 C 21.144531 -35.820312 20.617188 -34.257812 20.359375 -32.53125 L 14.5625 -5.59375 C 14.300781 -4.65625 13.835938 -3.753906 13.171875 -2.890625 C 12.503906 -2.023438 11.835938 -1.195312 11.171875 -0.40625 C 10.109375 0.53125 8.976562 1.066406 7.78125 1.203125 Z M 7.78125 1.203125 "/></g></g></g><g fill="#7a1111" fill-opacity="1"><g transform="translate(288.101013, 204.368516)"><g><path d="M 55.265625 -0.796875 C 53.003906 -1.859375 51.375 -3.453125 50.375 -5.578125 C 49.382812 -7.710938 48.753906 -9.644531 48.484375 -11.375 C 47.953125 -14.03125 47.953125 -16.953125 48.484375 -20.140625 C 49.015625 -23.335938 49.644531 -27.066406 50.375 -31.328125 C 51.113281 -35.585938 51.484375 -40.507812 51.484375 -46.09375 C 51.484375 -47.019531 51.28125 -47.550781 50.875 -47.6875 C 50.34375 -47.957031 49.742188 -47.691406 49.078125 -46.890625 C 47.347656 -44.765625 45.6875 -42.171875 44.09375 -39.109375 C 42.5 -36.046875 41.035156 -33.382812 39.703125 -31.125 C 38.503906 -28.863281 37.539062 -27 36.8125 -25.53125 C 36.082031 -24.070312 35.1875 -22.28125 34.125 -20.15625 C 32.394531 -16.832031 30.726562 -13.972656 29.125 -11.578125 C 27.53125 -9.179688 25.800781 -7.117188 23.9375 -5.390625 C 22.207031 -3.660156 20.3125 -2.425781 18.25 -1.6875 C 16.195312 -0.957031 14.703125 -0.460938 13.765625 -0.203125 C 9.503906 0.734375 6.175781 0.304688 3.78125 -1.484375 C 1.394531 -3.285156 0.203125 -5.1875 0.203125 -7.1875 C 0.0664062 -14.632812 0.796875 -22.210938 2.390625 -29.921875 C 3.984375 -37.640625 5.378906 -44.5625 6.578125 -50.6875 C 6.984375 -52.539062 7.515625 -55 8.171875 -58.0625 C 8.835938 -61.125 9.601562 -64.21875 10.46875 -67.34375 C 11.332031 -70.46875 12.097656 -72.960938 12.765625 -74.828125 C 13.035156 -75.492188 13.46875 -76.222656 14.0625 -77.015625 C 14.664062 -77.816406 15.628906 -78.347656 16.953125 -78.609375 C 18.421875 -78.878906 19.617188 -78.976562 20.546875 -78.90625 C 21.484375 -78.84375 22.347656 -78.144531 23.140625 -76.8125 C 23.671875 -75.488281 24.066406 -73.757812 24.328125 -71.625 C 24.597656 -69.5 24.671875 -67.90625 24.546875 -66.84375 C 24.273438 -62.988281 23.773438 -58.734375 23.046875 -54.078125 C 22.316406 -49.421875 21.550781 -44.992188 20.75 -40.796875 C 19.945312 -36.609375 19.21875 -33.050781 18.5625 -30.125 C 18.15625 -28 17.785156 -25.539062 17.453125 -22.75 C 17.117188 -19.957031 16.953125 -17.363281 16.953125 -14.96875 C 16.953125 -12.570312 17.15625 -10.972656 17.5625 -10.171875 C 18.351562 -9.378906 19.21875 -9.25 20.15625 -9.78125 C 22.019531 -10.84375 23.648438 -12.335938 25.046875 -14.265625 C 26.441406 -16.191406 28.132812 -18.953125 30.125 -22.546875 C 31.726562 -25.609375 33.925781 -29.695312 36.71875 -34.8125 C 39.507812 -39.9375 42.101562 -44.628906 44.5 -48.890625 C 45.164062 -49.953125 46.03125 -51.710938 47.09375 -54.171875 C 48.15625 -56.628906 49.382812 -59.253906 50.78125 -62.046875 C 52.175781 -64.847656 53.671875 -67.378906 55.265625 -69.640625 C 55.929688 -70.566406 56.597656 -71.5625 57.265625 -72.625 C 57.929688 -73.6875 58.53125 -74.6875 59.0625 -75.625 C 59.59375 -76.550781 60.6875 -77.113281 62.34375 -77.3125 C 64.007812 -77.519531 65.109375 -77.289062 65.640625 -76.625 C 67.367188 -75.15625 68.234375 -73.425781 68.234375 -71.4375 C 67.972656 -64.113281 67.707031 -58.15625 67.4375 -53.5625 C 67.175781 -48.976562 66.8125 -44.789062 66.34375 -41 C 65.875 -37.207031 65.242188 -32.851562 64.453125 -27.9375 C 63.515625 -22.082031 63.046875 -17.757812 63.046875 -14.96875 C 63.046875 -12.175781 64.113281 -10.179688 66.25 -8.984375 C 68.238281 -7.910156 70.394531 -8.140625 72.71875 -9.671875 C 75.050781 -11.203125 77.378906 -13.5625 79.703125 -16.75 C 82.035156 -19.945312 84.300781 -23.570312 86.5 -27.625 C 88.695312 -31.6875 90.59375 -35.679688 92.1875 -39.609375 C 93.78125 -43.535156 94.976562 -46.894531 95.78125 -49.6875 C 96.175781 -51.414062 96.972656 -52.878906 98.171875 -54.078125 C 98.429688 -54.203125 98.828125 -54.203125 99.359375 -54.078125 C 100.296875 -54.078125 100.765625 -53.546875 100.765625 -52.484375 C 100.628906 -51.410156 100.359375 -50.375 99.953125 -49.375 C 99.554688 -48.382812 99.226562 -47.421875 98.96875 -46.484375 C 98.832031 -46.085938 98.296875 -44.625 97.359375 -42.09375 C 96.429688 -39.570312 95.234375 -36.546875 93.765625 -33.015625 C 92.304688 -29.492188 90.710938 -25.9375 88.984375 -22.34375 C 87.253906 -18.75 85.59375 -15.691406 84 -13.171875 C 79.75 -6.648438 75.023438 -2.488281 69.828125 -0.6875 C 64.640625 1.101562 59.785156 1.066406 55.265625 -0.796875 Z M 55.265625 -0.796875 "/></g></g></g></g></g></svg>