<svg xmlns="http://www.w3.org/2000/svg" xmlns:xlink="http://www.w3.org/1999/xlink" width="1920" zoomAndPan="magnify" viewBox="0 0 1440 809.999993" height="1080" preserveAspectRatio="xMidYMid meet" version="1.0"><defs><g/><clipPath id="e96351a1dd"><path d="M 0.679688 0.558594 L 1040.839844 0.558594 L 1040.839844 262.640625 L 0.679688 262.640625 Z M 0.679688 0.558594 " clip-rule="nonzero"/></clipPath><clipPath id="dbad435195"><rect x="0" width="1041" y="0" height="263"/></clipPath><clipPath id="fe077d44cb"><rect x="0" width="1041" y="0" height="263"/></clipPath></defs><g transform="matrix(1, 0, 0, 1, 223, 256)"><g clip-path="url(#fe077d44cb)"><g clip-path="url(#e96351a1dd)"><g><g clip-path="url(#dbad435195)"><g fill="#790d0d" fill-opacity="1"><g transform="translate(2.076754, 191.12924)"><g><path d="M 263.59375 -164 C 263.59375 -157.957031 260.832031 -151.488281 255.3125 -144.59375 C 249.789062 -137.695312 242.285156 -130.882812 232.796875 -124.15625 C 223.316406 -117.4375 212.582031 -111.316406 200.59375 -105.796875 C 188.613281 -100.273438 176.066406 -95.742188 162.953125 -92.203125 C 149.847656 -88.671875 137.003906 -86.734375 124.421875 -86.390625 C 120.453125 -77.941406 117.128906 -69.191406 114.453125 -60.140625 C 111.785156 -51.085938 110.453125 -41.816406 110.453125 -32.328125 C 110.453125 -21.816406 112.304688 -14.144531 116.015625 -9.3125 C 119.722656 -4.476562 127.007812 -1.890625 137.875 -1.546875 C 137.695312 -2.929688 137.519531 -4.269531 137.34375 -5.5625 C 137.175781 -6.851562 137.09375 -8.191406 137.09375 -9.578125 C 137.09375 -23.023438 139.332031 -35.050781 143.8125 -45.65625 C 148.300781 -56.257812 154.296875 -64.578125 161.796875 -70.609375 C 169.296875 -76.648438 177.703125 -79.671875 187.015625 -79.671875 C 193.566406 -79.671875 198.566406 -77.515625 202.015625 -73.203125 C 205.472656 -68.890625 207.203125 -63.628906 207.203125 -57.421875 C 207.203125 -50.003906 205.128906 -42.929688 200.984375 -36.203125 C 196.847656 -29.484375 191.503906 -23.40625 184.953125 -17.96875 C 178.398438 -12.539062 171.285156 -8.101562 163.609375 -4.65625 C 155.929688 -1.207031 148.5625 0.773438 141.5 1.296875 C 142.1875 8.367188 143.132812 13.972656 144.34375 18.109375 C 145.550781 22.242188 146.15625 24.65625 146.15625 25.34375 C 146.15625 26.382812 145.722656 26.90625 144.859375 26.90625 C 144.335938 26.90625 143.601562 25.304688 142.65625 22.109375 C 141.707031 18.921875 140.800781 15.300781 139.9375 11.25 C 139.070312 7.195312 138.554688 3.960938 138.390625 1.546875 C 123.734375 1.546875 112.648438 -2.585938 105.140625 -10.859375 C 97.640625 -19.140625 93.890625 -30.09375 93.890625 -43.71875 C 93.890625 -48.03125 94.535156 -52.816406 95.828125 -58.078125 C 97.128906 -63.335938 98.769531 -68.507812 100.75 -73.59375 C 102.738281 -78.675781 104.765625 -83.113281 106.828125 -86.90625 C 98.035156 -87.769531 89.929688 -90.359375 82.515625 -94.671875 C 75.097656 -98.984375 69.101562 -104.628906 64.53125 -111.609375 C 59.96875 -118.597656 57.6875 -126.40625 57.6875 -135.03125 C 57.6875 -145.375 60.359375 -154.554688 65.703125 -162.578125 C 71.046875 -170.597656 78.414062 -176.890625 87.8125 -181.453125 C 97.21875 -186.023438 107.957031 -188.3125 120.03125 -188.3125 C 126.40625 -188.3125 133.300781 -187.234375 140.71875 -185.078125 C 148.132812 -182.921875 155.421875 -179.644531 162.578125 -175.25 C 169.734375 -170.851562 176.070312 -165.207031 181.59375 -158.3125 C 187.445312 -161.582031 193.910156 -164.941406 200.984375 -168.390625 C 208.054688 -171.835938 215.34375 -174.722656 222.84375 -177.046875 C 230.34375 -179.378906 237.539062 -180.546875 244.4375 -180.546875 C 249.957031 -180.546875 254.53125 -179.253906 258.15625 -176.671875 C 261.78125 -174.085938 263.59375 -169.863281 263.59375 -164 Z M 117.4375 -185.203125 C 106.75 -185.203125 97.175781 -183.046875 88.71875 -178.734375 C 80.269531 -174.429688 73.675781 -168.828125 68.9375 -161.921875 C 64.195312 -155.023438 61.828125 -147.613281 61.828125 -139.6875 C 61.828125 -133.132812 63.378906 -127.226562 66.484375 -121.96875 C 69.585938 -116.707031 73.679688 -112.222656 78.765625 -108.515625 C 83.847656 -104.804688 89.320312 -101.914062 95.1875 -99.84375 C 101.050781 -97.78125 106.65625 -96.570312 112 -96.21875 C 117.175781 -104.84375 123.726562 -113.035156 131.65625 -120.796875 C 139.59375 -128.554688 147.785156 -135.5 156.234375 -141.625 C 164.679688 -147.75 172.269531 -152.789062 179 -156.75 C 171.582031 -166.0625 162.398438 -173.128906 151.453125 -177.953125 C 140.503906 -182.785156 129.164062 -185.203125 117.4375 -185.203125 Z M 246.515625 -177.453125 C 239.273438 -177.453125 231.726562 -176.203125 223.875 -173.703125 C 216.03125 -171.203125 208.613281 -168.179688 201.625 -164.640625 C 194.644531 -161.109375 188.828125 -157.703125 184.171875 -154.421875 C 187.109375 -150.628906 189.738281 -146.789062 192.0625 -142.90625 C 194.394531 -139.03125 196.207031 -135.710938 197.5 -132.953125 C 198.789062 -130.191406 199.4375 -128.726562 199.4375 -128.5625 C 199.4375 -127.53125 198.921875 -127.015625 197.890625 -127.015625 C 197.191406 -127.015625 195.976562 -129.210938 194.25 -133.609375 C 192.53125 -138.003906 188.394531 -144.515625 181.84375 -153.140625 C 170.632812 -145.890625 160.546875 -137.347656 151.578125 -127.515625 C 142.609375 -117.691406 134.765625 -106.914062 128.046875 -95.1875 C 142.179688 -95.1875 155.800781 -96.738281 168.90625 -99.84375 C 182.019531 -102.945312 194.09375 -107.039062 205.125 -112.125 C 216.164062 -117.21875 225.863281 -122.820312 234.21875 -128.9375 C 242.582031 -135.0625 249.050781 -141.226562 253.625 -147.4375 C 258.195312 -153.644531 260.484375 -159.335938 260.484375 -164.515625 C 260.484375 -167.960938 259.445312 -170.976562 257.375 -173.5625 C 255.3125 -176.15625 251.691406 -177.453125 246.515625 -177.453125 Z M 204.09375 -57.6875 C 204.09375 -63.03125 202.796875 -67.335938 200.203125 -70.609375 C 197.617188 -73.890625 193.566406 -75.53125 188.046875 -75.53125 C 182.703125 -75.53125 177.269531 -73.457031 171.75 -69.3125 C 166.238281 -65.175781 161.15625 -59.742188 156.5 -53.015625 C 151.84375 -46.296875 148.132812 -38.925781 145.375 -30.90625 C 142.613281 -22.894531 141.234375 -15.007812 141.234375 -7.25 L 141.234375 -1.546875 C 147.785156 -1.890625 154.679688 -3.613281 161.921875 -6.71875 C 169.171875 -9.820312 175.984375 -14.003906 182.359375 -19.265625 C 188.742188 -24.523438 193.960938 -30.472656 198.015625 -37.109375 C 202.066406 -43.753906 204.09375 -50.613281 204.09375 -57.6875 Z M 204.09375 -57.6875 "/></g></g></g><g fill="#790d0d" fill-opacity="1"><g transform="translate(174.605811, 191.12924)"><g><path d="M 124.9375 -70.09375 L 137.359375 -70.625 C 135.972656 -68.894531 133.8125 -65.875 130.875 -61.5625 C 127.945312 -57.25 124.71875 -52.375 121.1875 -46.9375 C 117.65625 -41.507812 114.289062 -36.035156 111.09375 -30.515625 C 107.90625 -25.003906 105.273438 -20.132812 103.203125 -15.90625 C 101.140625 -11.6875 100.109375 -8.625 100.109375 -6.71875 C 100.109375 -4.3125 101.570312 -3.109375 104.5 -3.109375 C 108.46875 -3.109375 113.726562 -6.082031 120.28125 -12.03125 C 126.832031 -17.976562 133.816406 -25.347656 141.234375 -34.140625 C 142.785156 -36.035156 143.773438 -37.195312 144.203125 -37.625 C 144.640625 -38.0625 144.941406 -38.28125 145.109375 -38.28125 C 146.148438 -38.28125 146.671875 -37.765625 146.671875 -36.734375 C 146.671875 -36.554688 145.894531 -35.5625 144.34375 -33.75 C 142.789062 -31.945312 140.9375 -29.835938 138.78125 -27.421875 C 136.625 -25.003906 134.507812 -22.675781 132.4375 -20.4375 C 126.570312 -14.226562 121.179688 -9.269531 116.265625 -5.5625 C 111.359375 -1.851562 107.179688 0 103.734375 0 C 100.273438 0 97.507812 -1.207031 95.4375 -3.625 C 93.375 -6.039062 92.34375 -10.78125 92.34375 -17.84375 C 92.34375 -18.707031 92.382812 -19.523438 92.46875 -20.296875 C 92.5625 -21.078125 92.609375 -21.8125 92.609375 -22.5 C 90.015625 -19.914062 86.820312 -16.851562 83.03125 -13.3125 C 79.238281 -9.78125 75.359375 -6.675781 71.390625 -4 C 67.421875 -1.332031 63.800781 0 60.53125 0 C 56.21875 0 52.851562 -1.160156 50.4375 -3.484375 C 48.019531 -5.816406 46.378906 -8.789062 45.515625 -12.40625 C 44.660156 -16.03125 44.234375 -19.742188 44.234375 -23.546875 C 44.234375 -25.609375 44.363281 -27.628906 44.625 -29.609375 C 44.882812 -31.597656 45.1875 -33.628906 45.53125 -35.703125 C 45.351562 -35.703125 45.132812 -35.570312 44.875 -35.3125 C 44.613281 -35.050781 44.3125 -34.921875 43.96875 -34.921875 C 43.28125 -34.921875 42.9375 -35.351562 42.9375 -36.21875 C 42.9375 -36.726562 43.191406 -37.242188 43.703125 -37.765625 C 44.222656 -38.285156 45.347656 -39.578125 47.078125 -41.640625 C 54.148438 -50.265625 62.46875 -57.460938 72.03125 -63.234375 C 81.601562 -69.015625 90.875 -71.90625 99.84375 -71.90625 C 103.8125 -71.90625 106.65625 -70.65625 108.375 -68.15625 C 110.101562 -65.65625 110.96875 -62.679688 110.96875 -59.234375 C 110.96875 -56.128906 110.707031 -53.800781 110.1875 -52.25 L 110.71875 -51.734375 C 113.820312 -56.734375 116.0625 -60.523438 117.4375 -63.109375 C 118.8125 -65.703125 119.972656 -67.515625 120.921875 -68.546875 C 121.878906 -69.578125 123.21875 -70.09375 124.9375 -70.09375 Z M 54.578125 -11.375 C 54.578125 -8.96875 55.050781 -6.988281 56 -5.4375 C 56.945312 -3.882812 58.457031 -3.109375 60.53125 -3.109375 C 63.457031 -3.109375 66.988281 -4.398438 71.125 -6.984375 C 75.269531 -9.566406 79.453125 -13.015625 83.671875 -17.328125 C 87.898438 -21.640625 91.867188 -26.335938 95.578125 -31.421875 C 99.285156 -36.515625 102.257812 -41.515625 104.5 -46.421875 C 106.738281 -51.335938 107.859375 -55.695312 107.859375 -59.5 C 107.859375 -62.082031 107.210938 -64.28125 105.921875 -66.09375 C 104.628906 -67.90625 102.601562 -68.8125 99.84375 -68.8125 C 94.675781 -68.8125 89.414062 -66.738281 84.0625 -62.59375 C 78.71875 -58.457031 73.800781 -53.285156 69.3125 -47.078125 C 64.832031 -40.867188 61.253906 -34.53125 58.578125 -28.0625 C 55.910156 -21.59375 54.578125 -16.03125 54.578125 -11.375 Z M 54.578125 -11.375 "/></g></g></g><g fill="#790d0d" fill-opacity="1"><g transform="translate(275.226212, 191.12924)"><g><path d="M 138.125 -36.984375 C 138.125 -36.816406 137.257812 -35.695312 135.53125 -33.625 C 133.8125 -31.550781 131.742188 -29.222656 129.328125 -26.640625 C 126.921875 -24.054688 124.769531 -21.726562 122.875 -19.65625 C 116.320312 -12.9375 110.84375 -7.976562 106.4375 -4.78125 C 102.039062 -1.59375 98.117188 0 94.671875 0 C 91.742188 0 89.457031 -0.945312 87.8125 -2.84375 C 86.175781 -4.738281 85.097656 -6.976562 84.578125 -9.5625 C 84.066406 -12.15625 83.8125 -14.488281 83.8125 -16.5625 C 83.8125 -21.382812 85.273438 -26.425781 88.203125 -31.6875 C 91.140625 -36.945312 94.675781 -42.207031 98.8125 -47.46875 C 102.945312 -52.726562 106.828125 -57.769531 110.453125 -62.59375 L 109.9375 -63.109375 C 103.382812 -56.898438 97.128906 -50.5625 91.171875 -44.09375 C 85.222656 -37.632812 78.890625 -30.609375 72.171875 -23.015625 C 66.304688 -16.460938 60.875 -10.988281 55.875 -6.59375 C 50.875 -2.195312 45.875 0 40.875 0 C 36.90625 0 33.582031 -1.59375 30.90625 -4.78125 C 28.238281 -7.976562 26.90625 -12.25 26.90625 -17.59375 C 26.90625 -23.625 28.410156 -28.492188 31.421875 -32.203125 C 34.441406 -35.910156 38.625 -37.765625 43.96875 -37.765625 C 46.21875 -37.765625 47.988281 -37.117188 49.28125 -35.828125 C 50.570312 -34.535156 51.21875 -32.941406 51.21875 -31.046875 C 51.21875 -28.972656 50.613281 -27.160156 49.40625 -25.609375 C 48.195312 -24.054688 46.90625 -23.28125 45.53125 -23.28125 C 44.144531 -23.28125 43.0625 -23.453125 42.28125 -23.796875 C 41.507812 -24.140625 40.4375 -24.3125 39.0625 -24.3125 C 36.988281 -24.3125 35.21875 -23.445312 33.75 -21.71875 C 32.289062 -20 31.5625 -17.328125 31.5625 -13.703125 C 31.5625 -11.460938 32.421875 -9.132812 34.140625 -6.71875 C 35.867188 -4.3125 38.367188 -3.109375 41.640625 -3.109375 C 44.578125 -3.109375 47.679688 -4.3125 50.953125 -6.71875 C 54.234375 -9.132812 57.425781 -11.984375 60.53125 -15.265625 C 64.320312 -19.398438 67.550781 -22.929688 70.21875 -25.859375 C 72.894531 -28.796875 76 -32.160156 79.53125 -35.953125 C 83.070312 -39.742188 87.859375 -44.914062 93.890625 -51.46875 C 96.484375 -54.40625 99.503906 -57.46875 102.953125 -60.65625 C 106.398438 -63.84375 110.28125 -67.25 114.59375 -70.875 L 129.078125 -71.90625 C 121.140625 -59.320312 114.710938 -49.273438 109.796875 -41.765625 C 104.890625 -34.265625 101.097656 -28.488281 98.421875 -24.4375 C 95.753906 -20.382812 93.941406 -17.191406 92.984375 -14.859375 C 92.035156 -12.535156 91.5625 -10.082031 91.5625 -7.5 C 91.5625 -4.570312 93.03125 -3.109375 95.96875 -3.109375 C 97.863281 -3.109375 100.878906 -4.484375 105.015625 -7.234375 C 109.160156 -9.992188 114.25 -14.566406 120.28125 -20.953125 C 125.457031 -26.296875 129.125 -30.175781 131.28125 -32.59375 C 133.4375 -35.007812 134.8125 -36.5625 135.40625 -37.25 C 136.007812 -37.9375 136.488281 -38.28125 136.84375 -38.28125 C 137.695312 -38.28125 138.125 -37.847656 138.125 -36.984375 Z M 138.125 -36.984375 "/></g></g></g><g fill="#790d0d" fill-opacity="1"><g transform="translate(368.604013, 191.12924)"><g><path d="M 110.1875 -1.546875 L 93.890625 0 C 94.929688 -1.894531 96.832031 -5.039062 99.59375 -9.4375 C 102.351562 -13.832031 105.5 -18.789062 109.03125 -24.3125 C 112.5625 -29.832031 116.007812 -35.347656 119.375 -40.859375 C 122.738281 -46.378906 125.5 -51.335938 127.65625 -55.734375 C 129.8125 -60.140625 130.890625 -63.203125 130.890625 -64.921875 C 130.890625 -67.335938 129.769531 -68.632812 127.53125 -68.8125 C 125.28125 -69.15625 122 -67.425781 117.6875 -63.625 C 113.382812 -59.832031 108.554688 -54.960938 103.203125 -49.015625 C 97.859375 -43.066406 92.597656 -36.859375 87.421875 -30.390625 C 82.253906 -23.921875 77.6875 -18.054688 73.71875 -12.796875 C 69.75 -7.546875 66.988281 -3.796875 65.4375 -1.546875 L 48.625 0 C 61.21875 -20 70.960938 -35.34375 77.859375 -46.03125 C 84.753906 -56.726562 88.203125 -63.113281 88.203125 -65.1875 C 88.203125 -67.601562 86.910156 -68.8125 84.328125 -68.8125 C 80.703125 -68.8125 76.773438 -67.128906 72.546875 -63.765625 C 68.328125 -60.398438 64.0625 -56.476562 59.75 -52 C 53.71875 -45.613281 49.707031 -41.125 47.71875 -38.53125 C 45.738281 -35.945312 44.488281 -34.65625 43.96875 -34.65625 C 43.113281 -34.65625 42.6875 -35.175781 42.6875 -36.21875 C 42.6875 -36.5625 44.019531 -38.285156 46.6875 -41.390625 C 49.363281 -44.492188 53.113281 -48.71875 57.9375 -54.0625 C 63.976562 -60.789062 69.148438 -65.445312 73.453125 -68.03125 C 77.765625 -70.613281 81.472656 -71.90625 84.578125 -71.90625 C 91.484375 -71.90625 94.9375 -68.628906 94.9375 -62.078125 C 94.9375 -58.285156 94.070312 -54.273438 92.34375 -50.046875 C 90.625 -45.828125 88.597656 -41.734375 86.265625 -37.765625 C 83.941406 -33.796875 81.914062 -30.257812 80.1875 -27.15625 L 80.703125 -26.640625 C 82.941406 -29.054688 86.046875 -32.722656 90.015625 -37.640625 C 93.984375 -42.554688 98.296875 -47.640625 102.953125 -52.890625 C 107.609375 -58.148438 112.21875 -62.632812 116.78125 -66.34375 C 121.351562 -70.050781 125.363281 -71.90625 128.8125 -71.90625 C 134.675781 -71.90625 137.609375 -68.023438 137.609375 -60.265625 C 137.609375 -54.578125 136.097656 -48.800781 133.078125 -42.9375 C 130.066406 -37.070312 127.351562 -31.984375 124.9375 -27.671875 L 125.453125 -27.15625 C 127.691406 -29.75 130.835938 -33.5 134.890625 -38.40625 C 138.941406 -43.320312 143.335938 -48.320312 148.078125 -53.40625 C 152.828125 -58.5 157.570312 -62.851562 162.3125 -66.46875 C 167.0625 -70.09375 171.242188 -71.90625 174.859375 -71.90625 C 177.273438 -71.90625 179.390625 -70.867188 181.203125 -68.796875 C 183.015625 -66.734375 183.921875 -63.375 183.921875 -58.71875 C 183.921875 -54.582031 182.671875 -50.269531 180.171875 -45.78125 C 177.671875 -41.300781 174.691406 -36.859375 171.234375 -32.453125 C 167.785156 -28.054688 164.722656 -23.832031 162.046875 -19.78125 C 159.378906 -15.726562 157.875 -12.066406 157.53125 -8.796875 C 157.351562 -7.410156 157.648438 -6.113281 158.421875 -4.90625 C 159.203125 -3.707031 160.285156 -3.109375 161.671875 -3.109375 C 164.085938 -3.109375 167.40625 -4.660156 171.625 -7.765625 C 175.851562 -10.867188 180.378906 -14.832031 185.203125 -19.65625 C 191.066406 -25.863281 195.117188 -30.257812 197.359375 -32.84375 C 199.609375 -35.4375 200.988281 -36.988281 201.5 -37.5 C 202.019531 -38.019531 202.453125 -38.28125 202.796875 -38.28125 C 203.660156 -38.28125 204.09375 -37.847656 204.09375 -36.984375 C 204.09375 -36.296875 202.492188 -34.179688 199.296875 -30.640625 C 196.109375 -27.109375 192.789062 -23.617188 189.34375 -20.171875 C 182.96875 -13.453125 177.535156 -8.410156 173.046875 -5.046875 C 168.566406 -1.679688 164.515625 0 160.890625 0 C 157.097656 0 154.296875 -1.550781 152.484375 -4.65625 C 150.671875 -7.757812 149.765625 -11.726562 149.765625 -16.5625 C 149.765625 -22.070312 151.144531 -27.285156 153.90625 -32.203125 C 156.664062 -37.117188 159.851562 -41.734375 163.46875 -46.046875 C 167.09375 -50.359375 170.285156 -54.238281 173.046875 -57.6875 C 175.804688 -61.132812 177.1875 -64.066406 177.1875 -66.484375 C 177.1875 -68.035156 176.066406 -68.8125 173.828125 -68.8125 C 170.898438 -68.8125 167.0625 -66.867188 162.3125 -62.984375 C 157.570312 -59.109375 152.484375 -54.191406 147.046875 -48.234375 C 141.617188 -42.285156 136.359375 -36.117188 131.265625 -29.734375 C 126.179688 -23.359375 121.742188 -17.582031 117.953125 -12.40625 C 114.160156 -7.238281 111.570312 -3.617188 110.1875 -1.546875 Z M 110.1875 -1.546875 "/></g></g></g><g fill="#790d0d" fill-opacity="1"><g transform="translate(526.647868, 191.12924)"><g><path d="M 124.9375 -70.09375 L 137.359375 -70.625 C 135.972656 -68.894531 133.8125 -65.875 130.875 -61.5625 C 127.945312 -57.25 124.71875 -52.375 121.1875 -46.9375 C 117.65625 -41.507812 114.289062 -36.035156 111.09375 -30.515625 C 107.90625 -25.003906 105.273438 -20.132812 103.203125 -15.90625 C 101.140625 -11.6875 100.109375 -8.625 100.109375 -6.71875 C 100.109375 -4.3125 101.570312 -3.109375 104.5 -3.109375 C 108.46875 -3.109375 113.726562 -6.082031 120.28125 -12.03125 C 126.832031 -17.976562 133.816406 -25.347656 141.234375 -34.140625 C 142.785156 -36.035156 143.773438 -37.195312 144.203125 -37.625 C 144.640625 -38.0625 144.941406 -38.28125 145.109375 -38.28125 C 146.148438 -38.28125 146.671875 -37.765625 146.671875 -36.734375 C 146.671875 -36.554688 145.894531 -35.5625 144.34375 -33.75 C 142.789062 -31.945312 140.9375 -29.835938 138.78125 -27.421875 C 136.625 -25.003906 134.507812 -22.675781 132.4375 -20.4375 C 126.570312 -14.226562 121.179688 -9.269531 116.265625 -5.5625 C 111.359375 -1.851562 107.179688 0 103.734375 0 C 100.273438 0 97.507812 -1.207031 95.4375 -3.625 C 93.375 -6.039062 92.34375 -10.78125 92.34375 -17.84375 C 92.34375 -18.707031 92.382812 -19.523438 92.46875 -20.296875 C 92.5625 -21.078125 92.609375 -21.8125 92.609375 -22.5 C 90.015625 -19.914062 86.820312 -16.851562 83.03125 -13.3125 C 79.238281 -9.78125 75.359375 -6.675781 71.390625 -4 C 67.421875 -1.332031 63.800781 0 60.53125 0 C 56.21875 0 52.851562 -1.160156 50.4375 -3.484375 C 48.019531 -5.816406 46.378906 -8.789062 45.515625 -12.40625 C 44.660156 -16.03125 44.234375 -19.742188 44.234375 -23.546875 C 44.234375 -25.609375 44.363281 -27.628906 44.625 -29.609375 C 44.882812 -31.597656 45.1875 -33.628906 45.53125 -35.703125 C 45.351562 -35.703125 45.132812 -35.570312 44.875 -35.3125 C 44.613281 -35.050781 44.3125 -34.921875 43.96875 -34.921875 C 43.28125 -34.921875 42.9375 -35.351562 42.9375 -36.21875 C 42.9375 -36.726562 43.191406 -37.242188 43.703125 -37.765625 C 44.222656 -38.285156 45.347656 -39.578125 47.078125 -41.640625 C 54.148438 -50.265625 62.46875 -57.460938 72.03125 -63.234375 C 81.601562 -69.015625 90.875 -71.90625 99.84375 -71.90625 C 103.8125 -71.90625 106.65625 -70.65625 108.375 -68.15625 C 110.101562 -65.65625 110.96875 -62.679688 110.96875 -59.234375 C 110.96875 -56.128906 110.707031 -53.800781 110.1875 -52.25 L 110.71875 -51.734375 C 113.820312 -56.734375 116.0625 -60.523438 117.4375 -63.109375 C 118.8125 -65.703125 119.972656 -67.515625 120.921875 -68.546875 C 121.878906 -69.578125 123.21875 -70.09375 124.9375 -70.09375 Z M 54.578125 -11.375 C 54.578125 -8.96875 55.050781 -6.988281 56 -5.4375 C 56.945312 -3.882812 58.457031 -3.109375 60.53125 -3.109375 C 63.457031 -3.109375 66.988281 -4.398438 71.125 -6.984375 C 75.269531 -9.566406 79.453125 -13.015625 83.671875 -17.328125 C 87.898438 -21.640625 91.867188 -26.335938 95.578125 -31.421875 C 99.285156 -36.515625 102.257812 -41.515625 104.5 -46.421875 C 106.738281 -51.335938 107.859375 -55.695312 107.859375 -59.5 C 107.859375 -62.082031 107.210938 -64.28125 105.921875 -66.09375 C 104.628906 -67.90625 102.601562 -68.8125 99.84375 -68.8125 C 94.675781 -68.8125 89.414062 -66.738281 84.0625 -62.59375 C 78.71875 -58.457031 73.800781 -53.285156 69.3125 -47.078125 C 64.832031 -40.867188 61.253906 -34.53125 58.578125 -28.0625 C 55.910156 -21.59375 54.578125 -16.03125 54.578125 -11.375 Z M 54.578125 -11.375 "/></g></g></g><g fill="#790d0d" fill-opacity="1"><g transform="translate(627.268268, 191.12924)"><g><path d="M 142.015625 -71.90625 C 140.628906 -69.5 138.425781 -66.09375 135.40625 -61.6875 C 132.394531 -57.289062 129.035156 -52.460938 125.328125 -47.203125 C 121.617188 -41.941406 118.082031 -36.722656 114.71875 -31.546875 C 111.351562 -26.378906 108.550781 -21.640625 106.3125 -17.328125 C 104.070312 -13.015625 102.953125 -9.738281 102.953125 -7.5 C 102.953125 -4.570312 104.414062 -3.109375 107.34375 -3.109375 C 109.238281 -3.109375 112.253906 -4.484375 116.390625 -7.234375 C 120.535156 -9.992188 125.625 -14.566406 131.65625 -20.953125 C 136.832031 -26.296875 140.5 -30.175781 142.65625 -32.59375 C 144.8125 -35.007812 146.191406 -36.5625 146.796875 -37.25 C 147.398438 -37.9375 147.875 -38.28125 148.21875 -38.28125 C 149.082031 -38.28125 149.515625 -37.847656 149.515625 -36.984375 C 149.515625 -36.816406 148.648438 -35.695312 146.921875 -33.625 C 145.203125 -31.550781 143.132812 -29.222656 140.71875 -26.640625 C 138.300781 -24.054688 136.144531 -21.726562 134.25 -19.65625 C 127.695312 -12.9375 122.222656 -7.976562 117.828125 -4.78125 C 113.429688 -1.59375 109.507812 0 106.0625 0 C 103.125 0 100.835938 -0.945312 99.203125 -2.84375 C 97.566406 -4.738281 96.488281 -6.976562 95.96875 -9.5625 C 95.445312 -12.15625 95.1875 -14.488281 95.1875 -16.5625 C 95.1875 -18.457031 95.359375 -20.222656 95.703125 -21.859375 C 96.046875 -23.492188 96.476562 -25.003906 97 -26.390625 C 97.863281 -28.453125 98.851562 -30.519531 99.96875 -32.59375 C 101.09375 -34.664062 102.257812 -36.648438 103.46875 -38.546875 C 102.257812 -37.847656 100.359375 -36.8125 97.765625 -35.4375 C 95.179688 -34.0625 92.941406 -33.375 91.046875 -33.375 C 88.984375 -33.375 87.128906 -33.671875 85.484375 -34.265625 C 83.847656 -34.867188 82.6875 -35.773438 82 -36.984375 C 81.476562 -38.023438 81.128906 -39.144531 80.953125 -40.34375 C 80.785156 -41.550781 80.269531 -42.242188 79.40625 -42.421875 C 78.550781 -42.765625 77.691406 -42.71875 76.828125 -42.28125 C 75.960938 -41.851562 75.097656 -41.296875 74.234375 -40.609375 L 50.953125 -1.03125 L 33.375 0 L 73.984375 -62.59375 L 73.46875 -63.109375 C 70.875 -61.046875 67.679688 -58.160156 63.890625 -54.453125 C 60.097656 -50.742188 55.097656 -45.351562 48.890625 -38.28125 C 47.679688 -36.726562 46.554688 -35.390625 45.515625 -34.265625 C 44.484375 -33.148438 43.796875 -32.59375 43.453125 -32.59375 C 42.765625 -32.59375 42.421875 -33.109375 42.421875 -34.140625 C 42.421875 -34.828125 43.109375 -35.859375 44.484375 -37.234375 C 45.867188 -38.617188 48.375 -41.382812 52 -45.53125 C 57 -51.039062 61.738281 -55.820312 66.21875 -59.875 C 70.707031 -63.9375 74.070312 -67.601562 76.3125 -70.875 L 92.609375 -71.90625 L 76.046875 -43.71875 C 78.628906 -44.75 81.648438 -45.265625 85.109375 -45.265625 C 87.515625 -45.265625 89.234375 -44.742188 90.265625 -43.703125 C 91.304688 -42.671875 92.085938 -41.46875 92.609375 -40.09375 C 92.953125 -38.882812 93.378906 -38.148438 93.890625 -37.890625 C 94.410156 -37.628906 95.015625 -37.5 95.703125 -37.5 C 97.429688 -37.5 99.15625 -37.972656 100.875 -38.921875 C 102.601562 -39.878906 104.332031 -41.21875 106.0625 -42.9375 C 106.40625 -43.28125 106.660156 -43.535156 106.828125 -43.703125 C 107.003906 -43.878906 107.175781 -44.054688 107.34375 -44.234375 C 107.6875 -44.578125 108.03125 -44.960938 108.375 -45.390625 C 108.726562 -45.828125 108.988281 -46.21875 109.15625 -46.5625 C 115.363281 -54.84375 120.796875 -62.945312 125.453125 -70.875 Z M 142.015625 -71.90625 "/></g></g></g><g fill="#790d0d" fill-opacity="1"><g transform="translate(732.027288, 191.12924)"><g><path d="M 124.9375 -70.09375 L 137.359375 -70.625 C 135.972656 -68.894531 133.8125 -65.875 130.875 -61.5625 C 127.945312 -57.25 124.71875 -52.375 121.1875 -46.9375 C 117.65625 -41.507812 114.289062 -36.035156 111.09375 -30.515625 C 107.90625 -25.003906 105.273438 -20.132812 103.203125 -15.90625 C 101.140625 -11.6875 100.109375 -8.625 100.109375 -6.71875 C 100.109375 -4.3125 101.570312 -3.109375 104.5 -3.109375 C 108.46875 -3.109375 113.726562 -6.082031 120.28125 -12.03125 C 126.832031 -17.976562 133.816406 -25.347656 141.234375 -34.140625 C 142.785156 -36.035156 143.773438 -37.195312 144.203125 -37.625 C 144.640625 -38.0625 144.941406 -38.28125 145.109375 -38.28125 C 146.148438 -38.28125 146.671875 -37.765625 146.671875 -36.734375 C 146.671875 -36.554688 145.894531 -35.5625 144.34375 -33.75 C 142.789062 -31.945312 140.9375 -29.835938 138.78125 -27.421875 C 136.625 -25.003906 134.507812 -22.675781 132.4375 -20.4375 C 126.570312 -14.226562 121.179688 -9.269531 116.265625 -5.5625 C 111.359375 -1.851562 107.179688 0 103.734375 0 C 100.273438 0 97.507812 -1.207031 95.4375 -3.625 C 93.375 -6.039062 92.34375 -10.78125 92.34375 -17.84375 C 92.34375 -18.707031 92.382812 -19.523438 92.46875 -20.296875 C 92.5625 -21.078125 92.609375 -21.8125 92.609375 -22.5 C 90.015625 -19.914062 86.820312 -16.851562 83.03125 -13.3125 C 79.238281 -9.78125 75.359375 -6.675781 71.390625 -4 C 67.421875 -1.332031 63.800781 0 60.53125 0 C 56.21875 0 52.851562 -1.160156 50.4375 -3.484375 C 48.019531 -5.816406 46.378906 -8.789062 45.515625 -12.40625 C 44.660156 -16.03125 44.234375 -19.742188 44.234375 -23.546875 C 44.234375 -25.609375 44.363281 -27.628906 44.625 -29.609375 C 44.882812 -31.597656 45.1875 -33.628906 45.53125 -35.703125 C 45.351562 -35.703125 45.132812 -35.570312 44.875 -35.3125 C 44.613281 -35.050781 44.3125 -34.921875 43.96875 -34.921875 C 43.28125 -34.921875 42.9375 -35.351562 42.9375 -36.21875 C 42.9375 -36.726562 43.191406 -37.242188 43.703125 -37.765625 C 44.222656 -38.285156 45.347656 -39.578125 47.078125 -41.640625 C 54.148438 -50.265625 62.46875 -57.460938 72.03125 -63.234375 C 81.601562 -69.015625 90.875 -71.90625 99.84375 -71.90625 C 103.8125 -71.90625 106.65625 -70.65625 108.375 -68.15625 C 110.101562 -65.65625 110.96875 -62.679688 110.96875 -59.234375 C 110.96875 -56.128906 110.707031 -53.800781 110.1875 -52.25 L 110.71875 -51.734375 C 113.820312 -56.734375 116.0625 -60.523438 117.4375 -63.109375 C 118.8125 -65.703125 119.972656 -67.515625 120.921875 -68.546875 C 121.878906 -69.578125 123.21875 -70.09375 124.9375 -70.09375 Z M 54.578125 -11.375 C 54.578125 -8.96875 55.050781 -6.988281 56 -5.4375 C 56.945312 -3.882812 58.457031 -3.109375 60.53125 -3.109375 C 63.457031 -3.109375 66.988281 -4.398438 71.125 -6.984375 C 75.269531 -9.566406 79.453125 -13.015625 83.671875 -17.328125 C 87.898438 -21.640625 91.867188 -26.335938 95.578125 -31.421875 C 99.285156 -36.515625 102.257812 -41.515625 104.5 -46.421875 C 106.738281 -51.335938 107.859375 -55.695312 107.859375 -59.5 C 107.859375 -62.082031 107.210938 -64.28125 105.921875 -66.09375 C 104.628906 -67.90625 102.601562 -68.8125 99.84375 -68.8125 C 94.675781 -68.8125 89.414062 -66.738281 84.0625 -62.59375 C 78.71875 -58.457031 73.800781 -53.285156 69.3125 -47.078125 C 64.832031 -40.867188 61.253906 -34.53125 58.578125 -28.0625 C 55.910156 -21.59375 54.578125 -16.03125 54.578125 -11.375 Z M 54.578125 -11.375 "/></g></g><g transform="translate(832.647731, 191.12924)"><g><path d="M 110.1875 -1.546875 L 93.890625 0 C 94.929688 -1.894531 96.832031 -5.039062 99.59375 -9.4375 C 102.351562 -13.832031 105.5 -18.789062 109.03125 -24.3125 C 112.5625 -29.832031 116.007812 -35.347656 119.375 -40.859375 C 122.738281 -46.378906 125.5 -51.335938 127.65625 -55.734375 C 129.8125 -60.140625 130.890625 -63.203125 130.890625 -64.921875 C 130.890625 -67.335938 129.769531 -68.632812 127.53125 -68.8125 C 125.28125 -69.15625 122 -67.425781 117.6875 -63.625 C 113.382812 -59.832031 108.554688 -54.960938 103.203125 -49.015625 C 97.859375 -43.066406 92.597656 -36.859375 87.421875 -30.390625 C 82.253906 -23.921875 77.6875 -18.054688 73.71875 -12.796875 C 69.75 -7.546875 66.988281 -3.796875 65.4375 -1.546875 L 48.625 0 C 61.21875 -20 70.960938 -35.34375 77.859375 -46.03125 C 84.753906 -56.726562 88.203125 -63.113281 88.203125 -65.1875 C 88.203125 -67.601562 86.910156 -68.8125 84.328125 -68.8125 C 80.703125 -68.8125 76.773438 -67.128906 72.546875 -63.765625 C 68.328125 -60.398438 64.0625 -56.476562 59.75 -52 C 53.71875 -45.613281 49.707031 -41.125 47.71875 -38.53125 C 45.738281 -35.945312 44.488281 -34.65625 43.96875 -34.65625 C 43.113281 -34.65625 42.6875 -35.175781 42.6875 -36.21875 C 42.6875 -36.5625 44.019531 -38.285156 46.6875 -41.390625 C 49.363281 -44.492188 53.113281 -48.71875 57.9375 -54.0625 C 63.976562 -60.789062 69.148438 -65.445312 73.453125 -68.03125 C 77.765625 -70.613281 81.472656 -71.90625 84.578125 -71.90625 C 91.484375 -71.90625 94.9375 -68.628906 94.9375 -62.078125 C 94.9375 -58.285156 94.070312 -54.273438 92.34375 -50.046875 C 90.625 -45.828125 88.597656 -41.734375 86.265625 -37.765625 C 83.941406 -33.796875 81.914062 -30.257812 80.1875 -27.15625 L 80.703125 -26.640625 C 82.941406 -29.054688 86.046875 -32.722656 90.015625 -37.640625 C 93.984375 -42.554688 98.296875 -47.640625 102.953125 -52.890625 C 107.609375 -58.148438 112.21875 -62.632812 116.78125 -66.34375 C 121.351562 -70.050781 125.363281 -71.90625 128.8125 -71.90625 C 134.675781 -71.90625 137.609375 -68.023438 137.609375 -60.265625 C 137.609375 -54.578125 136.097656 -48.800781 133.078125 -42.9375 C 130.066406 -37.070312 127.351562 -31.984375 124.9375 -27.671875 L 125.453125 -27.15625 C 127.691406 -29.75 130.835938 -33.5 134.890625 -38.40625 C 138.941406 -43.320312 143.335938 -48.320312 148.078125 -53.40625 C 152.828125 -58.5 157.570312 -62.851562 162.3125 -66.46875 C 167.0625 -70.09375 171.242188 -71.90625 174.859375 -71.90625 C 177.273438 -71.90625 179.390625 -70.867188 181.203125 -68.796875 C 183.015625 -66.734375 183.921875 -63.375 183.921875 -58.71875 C 183.921875 -54.582031 182.671875 -50.269531 180.171875 -45.78125 C 177.671875 -41.300781 174.691406 -36.859375 171.234375 -32.453125 C 167.785156 -28.054688 164.722656 -23.832031 162.046875 -19.78125 C 159.378906 -15.726562 157.875 -12.066406 157.53125 -8.796875 C 157.351562 -7.410156 157.648438 -6.113281 158.421875 -4.90625 C 159.203125 -3.707031 160.285156 -3.109375 161.671875 -3.109375 C 164.085938 -3.109375 167.40625 -4.660156 171.625 -7.765625 C 175.851562 -10.867188 180.378906 -14.832031 185.203125 -19.65625 C 191.066406 -25.863281 195.117188 -30.257812 197.359375 -32.84375 C 199.609375 -35.4375 200.988281 -36.988281 201.5 -37.5 C 202.019531 -38.019531 202.453125 -38.28125 202.796875 -38.28125 C 203.660156 -38.28125 204.09375 -37.847656 204.09375 -36.984375 C 204.09375 -36.296875 202.492188 -34.179688 199.296875 -30.640625 C 196.109375 -27.109375 192.789062 -23.617188 189.34375 -20.171875 C 182.96875 -13.453125 177.535156 -8.410156 173.046875 -5.046875 C 168.566406 -1.679688 164.515625 0 160.890625 0 C 157.097656 0 154.296875 -1.550781 152.484375 -4.65625 C 150.671875 -7.757812 149.765625 -11.726562 149.765625 -16.5625 C 149.765625 -22.070312 151.144531 -27.285156 153.90625 -32.203125 C 156.664062 -37.117188 159.851562 -41.734375 163.46875 -46.046875 C 167.09375 -50.359375 170.285156 -54.238281 173.046875 -57.6875 C 175.804688 -61.132812 177.1875 -64.066406 177.1875 -66.484375 C 177.1875 -68.035156 176.066406 -68.8125 173.828125 -68.8125 C 170.898438 -68.8125 167.0625 -66.867188 162.3125 -62.984375 C 157.570312 -59.109375 152.484375 -54.191406 147.046875 -48.234375 C 141.617188 -42.285156 136.359375 -36.117188 131.265625 -29.734375 C 126.179688 -23.359375 121.742188 -17.582031 117.953125 -12.40625 C 114.160156 -7.238281 111.570312 -3.617188 110.1875 -1.546875 Z M 110.1875 -1.546875 "/></g></g></g></g></g></g></g></g></svg>